<?xml version="1.0" standalone="no"?>
<!DOCTYPE svg PUBLIC "-//W3C//DTD SVG 20010904//EN"
 "http://www.w3.org/TR/2001/REC-SVG-20010904/DTD/svg10.dtd">
<svg version="1.0" xmlns="http://www.w3.org/2000/svg"
 width="128.000000pt" height="128.000000pt" viewBox="0 0 128.000000 128.000000"
 preserveAspectRatio="xMidYMid meet">

<g transform="translate(0.000000,128.000000) scale(0.100000,-0.100000)"
fill="#000000" stroke="none">
<path d="M565 1271 c-92 -24 -174 -91 -214 -176 -21 -42 -25 -70 -29 -171 l-4
-122 -45 -5 c-33 -3 -54 -13 -77 -36 l-31 -31 0 -330 0 -330 33 -32 32 -33
410 0 410 0 32 33 33 32 0 330 0 330 -31 31 c-23 23 -44 33 -77 36 l-45 5 -4
122 c-4 115 -6 124 -38 184 -37 70 -69 101 -142 138 -54 27 -159 40 -213 25z
m189 -131 c20 -14 49 -43 64 -64 25 -36 27 -48 30 -158 l4 -118 -212 0 -212 0
4 119 c3 114 4 121 33 162 45 64 104 91 186 87 50 -3 75 -10 103 -28z m-69
-566 c66 -31 81 -116 29 -164 -21 -21 -24 -32 -24 -97 0 -66 -2 -74 -25 -89
-23 -15 -27 -15 -50 0 -23 15 -25 23 -25 89 0 65 -3 76 -24 97 -51 47 -37 132
27 164 40 20 51 20 92 0z"/>
</g>
</svg>
