<svg version="1.1" xmlns="http://www.w3.org/2000/svg" xmlns:xlink="http://www.w3.org/1999/xlink" width="24" height="24" viewBox="0,0,256,256"><g fill="#fc9631" fill-rule="nonzero" stroke="none" stroke-width="1" stroke-linecap="butt" stroke-linejoin="miter" stroke-miterlimit="10" stroke-dasharray="" stroke-dashoffset="0" font-family="none" font-weight="none" font-size="none" text-anchor="none" style="mix-blend-mode: normal"><g transform="translate(0,256) scale(0.26667,0.26667)"><path d="M160,-160c-22,0 -40.83333,-7.83333 -56.5,-23.5c-15.66667,-15.66667 -23.5,-34.5 -23.5,-56.5v-480c0,-22 7.83333,-40.83333 23.5,-56.5c15.66667,-15.66667 34.5,-23.5 56.5,-23.5h640c22,0 40.83333,7.83333 56.5,23.5c15.66667,15.66667 23.5,34.5 23.5,56.5v480c0,22 -7.83333,40.83333 -23.5,56.5c-15.66667,15.66667 -34.5,23.5 -56.5,23.5zM260,-360h46v-240h-36l-70,50l24,36l36,-26zM384,-360h156v-40h-94l-2,-2c14,-13.33333 25.5,-24.66667 34.5,-34c9,-9.33333 16.16667,-16.66667 21.5,-22c12,-12 21,-24 27,-36c6,-12 9,-24.66667 9,-38c0,-19.33333 -7.33333,-35.5 -22,-48.5c-14.66667,-13 -33.33333,-19.5 -56,-19.5c-17.33333,0 -33,5 -47,15c-14,10 -23.66667,23 -29,39l40,16c3.33333,-8.66667 8.16667,-15.5 14.5,-20.5c6.33333,-5 13.5,-7.5 21.5,-7.5c10,0 18.16667,2.66667 24.5,8c6.33333,5.33333 9.5,12 9.5,20c0,7.33333 -1.33333,14.16667 -4,20.5c-2.66667,6.33333 -8.66667,14.16667 -18,23.5l-32,32l-54,54zM680,-360c24,0 43.33333,-6.66667 58,-20c14.66667,-13.33333 22,-30.66667 22,-52c0,-12 -3.33333,-22.66667 -10,-32c-6.66667,-9.33333 -16,-16.66667 -28,-22v-2c9.33333,-5.33333 16.66667,-12.16667 22,-20.5c5.33333,-8.33333 8,-18.16667 8,-29.5c0,-18 -7,-32.83333 -21,-44.5c-14,-11.66667 -31.66667,-17.5 -53,-17.5c-16.66667,0 -32.16667,4.83333 -46.5,14.5c-14.33333,9.66667 -23.5,21.5 -27.5,35.5l40,16c2.66667,-8 7,-14.33333 13,-19c6,-4.66667 13,-7 21,-7c8.66667,0 15.83333,2.5 21.5,7.5c5.66667,5 8.5,11.16667 8.5,18.5c0,9.33333 -3.33333,16.66667 -10,22c-6.66667,5.33333 -15.33333,8 -26,8h-18v40h20c13.33333,0 23.66667,2.66667 31,8c7.33333,5.33333 11,12.66667 11,22c0,8.66667 -3.66667,16.16667 -11,22.5c-7.33333,6.33333 -15.66667,9.5 -25,9.5c-11.33333,0 -20,-2.5 -26,-7.5c-6,-5 -11.33333,-13.83333 -16,-26.5l-40,16c4.66667,19.33333 14.16667,34.16667 28.5,44.5c14.33333,10.33333 32.16667,15.5 53.5,15.5zM160,-240h640v-480h-640zM160,-240v-480z"></path></g></g></svg>