<svg version="1.1" xmlns="http://www.w3.org/2000/svg" xmlns:xlink="http://www.w3.org/1999/xlink" width="24" height="24" viewBox="0,0,256,256"><g fill="#fc9631" fill-rule="nonzero" stroke="none" stroke-width="1" stroke-linecap="butt" stroke-linejoin="miter" stroke-miterlimit="10" stroke-dasharray="" stroke-dashoffset="0" font-family="none" font-weight="none" font-size="none" text-anchor="none" style="mix-blend-mode: normal"><g transform="translate(0,274.10169) scale(0.26667,0.26667)"><path d="M760,-720c-33.33333,0 -61.66667,-11.66667 -85,-35c-23.33333,-23.33333 -35,-51.66667 -35,-85c0,-33.33333 11.66667,-61.66667 35,-85c23.33333,-23.33333 51.66667,-35 85,-35c33.33333,0 61.66667,11.66667 85,35c23.33333,23.33333 35,51.66667 35,85c0,33.33333 -11.66667,61.66667 -35,85c-23.33333,23.33333 -51.66667,35 -85,35zM240,-240l-92,92c-12.66667,12.66667 -27.16667,15.5 -43.5,8.5c-16.33333,-7 -24.5,-19.5 -24.5,-37.5v-623c0,-22 7.83333,-40.83333 23.5,-56.5c15.66667,-15.66667 34.5,-23.5 56.5,-23.5h404c-2.66667,13.33333 -4,26.66667 -4,40c0,13.33333 1.33333,26.66667 4,40c3.33333,15.33333 8,29.66667 14,43c6,13.33333 13.33333,25.66667 22,37h-360v80h520c21.33333,0 42.33333,-3.33333 63,-10c20.66667,-6.66667 39.66667,-16.66667 57,-30v360c0,22 -7.83333,40.83333 -23.5,56.5c-15.66667,15.66667 -34.5,23.5 -56.5,23.5zM240,-520h480v-80h-480zM240,-400h320v-80h-320z"></path></g></g></svg>