<?xml version="1.0" standalone="no"?>
<!DOCTYPE svg PUBLIC "-//W3C//DTD SVG 20010904//EN"
 "http://www.w3.org/TR/2001/REC-SVG-20010904/DTD/svg10.dtd">
<svg version="1.0" xmlns="http://www.w3.org/2000/svg"
 width="128.000000pt" height="128.000000pt" viewBox="0 0 128.000000 128.000000"
 preserveAspectRatio="xMidYMid meet">

<g transform="translate(0.000000,128.000000) scale(0.100000,-0.100000)"
fill="#000000" stroke="none">
<path d="M76 1083 c-9 -10 545 -563 564 -563 19 0 573 553 564 563 -9 9 -1119
9 -1128 0z"/>
<path d="M7 1014 c-10 -10 -9 -742 1 -748 5 -3 93 80 198 185 l189 189 -190
190 c-105 105 -194 188 -198 184z"/>
<path d="M1074 829 l-189 -189 189 -189 c105 -105 193 -188 198 -185 11 7 11
741 0 748 -5 3 -93 -80 -198 -185z"/>
<path d="M257 392 c-103 -103 -185 -191 -181 -195 10 -10 1122 -9 1128 1 3 5
-80 93 -184 197 l-190 190 -57 -57 c-67 -64 -90 -78 -133 -78 -43 0 -77 20
-135 79 -27 28 -52 51 -55 51 -3 0 -90 -85 -193 -188z"/>
</g>
</svg>
