<svg version="1.1" xmlns="http://www.w3.org/2000/svg" xmlns:xlink="http://www.w3.org/1999/xlink" width="128.000000pt" height="128.000000pt" viewBox="0,0,256,256"><g fill="#fc9631" fill-rule="nonzero" stroke="none" stroke-width="1" stroke-linecap="butt" stroke-linejoin="miter" stroke-miterlimit="10" stroke-dasharray="" stroke-dashoffset="0" font-family="none" font-weight="none" font-size="none" text-anchor="none" style="mix-blend-mode: normal"><g transform="translate(-0.02313,-0.02687) scale(2,2)"><g transform="translate(0,128) scale(0.1,-0.1)"><path d="M76,1083c-9,-10 545,-563 564,-563c19,0 573,553 564,563c-9,9 -1119,9 -1128,0z"></path><path d="M7,1014c-10,-10 -9,-742 1,-748c5,-3 93,80 198,185l189,189l-190,190c-105,105 -194,188 -198,184z"></path><path d="M1074,829l-189,-189l189,-189c105,-105 193,-188 198,-185c11,7 11,741 0,748c-5,3 -93,-80 -198,-185z"></path><path d="M257,392c-103,-103 -185,-191 -181,-195c10,-10 1122,-9 1128,1c3,5 -80,93 -184,197l-190,190l-57,-57c-67,-64 -90,-78 -133,-78c-43,0 -77,20 -135,79c-27,28 -52,51 -55,51c-3,0 -90,-85 -193,-188z"></path></g></g></g></svg>