<svg version="1.1" xmlns="http://www.w3.org/2000/svg" xmlns:xlink="http://www.w3.org/1999/xlink" width="128.000000pt" height="128.000000pt" viewBox="0,0,256,256"><g fill="#fc9631" fill-rule="nonzero" stroke="none" stroke-width="1" stroke-linecap="butt" stroke-linejoin="miter" stroke-miterlimit="10" stroke-dasharray="" stroke-dashoffset="0" font-family="none" font-weight="none" font-size="none" text-anchor="none" style="mix-blend-mode: normal"><g transform="translate(0,0.23272) scale(2,2)"><g transform="translate(0,128) scale(0.1,-0.1)"><path d="M565,1271c-92,-24 -174,-91 -214,-176c-21,-42 -25,-70 -29,-171l-4,-122l-45,-5c-33,-3 -54,-13 -77,-36l-31,-31v-330v-330l33,-32l32,-33h410h410l32,33l33,32v330v330l-31,31c-23,23 -44,33 -77,36l-45,5l-4,122c-4,115 -6,124 -38,184c-37,70 -69,101 -142,138c-54,27 -159,40 -213,25zM754,1140c20,-14 49,-43 64,-64c25,-36 27,-48 30,-158l4,-118h-212h-212l4,119c3,114 4,121 33,162c45,64 104,91 186,87c50,-3 75,-10 103,-28zM685,574c66,-31 81,-116 29,-164c-21,-21 -24,-32 -24,-97c0,-66 -2,-74 -25,-89c-23,-15 -27,-15 -50,0c-23,15 -25,23 -25,89c0,65 -3,76 -24,97c-51,47 -37,132 27,164c40,20 51,20 92,0z"></path></g></g></g></svg>