<svg version="1.1" xmlns="http://www.w3.org/2000/svg" xmlns:xlink="http://www.w3.org/1999/xlink" width="24" height="24" viewBox="0,0,256,256"><g fill="#fc9631" fill-rule="nonzero" stroke="none" stroke-width="1" stroke-linecap="butt" stroke-linejoin="miter" stroke-miterlimit="10" stroke-dasharray="" stroke-dashoffset="0" font-family="none" font-weight="none" font-size="none" text-anchor="none" style="mix-blend-mode: normal"><g transform="translate(0,256.26667) scale(0.26667,0.26667)"><path d="M760,-481c0,-55.33333 -14.66667,-105.83333 -44,-151.5c-29.33333,-45.66667 -68.66667,-79.83333 -118,-102.5c-10,-4.66667 -17.33333,-11.83333 -22,-21.5c-4.66667,-9.66667 -5.33333,-19.5 -2,-29.5c4,-10.66667 11.16667,-18.33333 21.5,-23c10.33333,-4.66667 20.83333,-4.66667 31.5,0c64.66667,28.66667 116.33333,72.5 155,131.5c38.66667,59 58,124.5 58,196.5c0,72 -19.33333,137.5 -58,196.5c-38.66667,59 -90.33333,102.83333 -155,131.5c-10.66667,4.66667 -21.16667,4.66667 -31.5,0c-10.33333,-4.66667 -17.5,-12.33333 -21.5,-23c-3.33333,-10 -2.66667,-19.83333 2,-29.5c4.66667,-9.66667 12,-16.83333 22,-21.5c49.33333,-22.66667 88.66667,-56.83333 118,-102.5c29.33333,-45.66667 44,-96.16667 44,-151.5zM280,-360h-120c-11.33333,0 -20.83333,-3.83333 -28.5,-11.5c-7.66667,-7.66667 -11.5,-17.16667 -11.5,-28.5v-160c0,-11.33333 3.83333,-20.83333 11.5,-28.5c7.66667,-7.66667 17.16667,-11.5 28.5,-11.5h120l132,-132c12.66667,-12.66667 27.16667,-15.5 43.5,-8.5c16.33333,7 24.5,19.5 24.5,37.5v446c0,18 -8.16667,30.5 -24.5,37.5c-16.33333,7 -30.83333,4.16667 -43.5,-8.5zM660,-480c0,28 -6.33333,54.5 -19,79.5c-12.66667,25 -29.33333,45.5 -50,61.5c-6.66667,4 -13.5,4.16667 -20.5,0.5c-7,-3.66667 -10.5,-9.5 -10.5,-17.5v-250c0,-8 3.5,-13.83333 10.5,-17.5c7,-3.66667 13.83333,-3.5 20.5,0.5c20.66667,16.66667 37.33333,37.66667 50,63c12.66667,25.33333 19,52 19,80z"></path></g></g></svg>