<svg version="1.1" xmlns="http://www.w3.org/2000/svg" xmlns:xlink="http://www.w3.org/1999/xlink" width="128.000000pt" height="128.000000pt" viewBox="0,0,256,256"><g fill="#fc9631" fill-rule="nonzero" stroke="none" stroke-width="1" stroke-linecap="butt" stroke-linejoin="miter" stroke-miterlimit="10" stroke-dasharray="" stroke-dashoffset="0" font-family="none" font-weight="none" font-size="none" text-anchor="none" style="mix-blend-mode: normal"><g transform="translate(-0.10469,0.04435) scale(2,2)"><g transform="translate(0,128) scale(0.1,-0.1)"><path d="M543,1266c-199,-63 -281,-290 -167,-462c122,-184 390,-183 512,1c36,55 57,141 48,202c-26,189 -216,314 -393,259z"></path><path d="M296,645c-53,-19 -102,-69 -136,-140c-35,-74 -50,-153 -50,-265c0,-110 23,-161 95,-205l48,-30l363,-3c240,-2 377,1 404,8c51,14 108,63 131,115c48,105 5,357 -78,456c-31,37 -115,79 -158,79c-16,0 -71,-20 -121,-46c-77,-39 -99,-46 -150,-46c-64,-1 -120,18 -195,64c-51,31 -93,35 -153,13z"></path></g></g></g></svg>